<?xml version="1.0" encoding="UTF-8" standalone="no"?>
<!-- Created with Inkscape (http://www.inkscape.org/) -->

<svg
   xmlns:dc="http://purl.org/dc/elements/1.1/"
   xmlns:cc="http://creativecommons.org/ns#"
   xmlns:rdf="http://www.w3.org/1999/02/22-rdf-syntax-ns#"
   xmlns:svg="http://www.w3.org/2000/svg"
   xmlns="http://www.w3.org/2000/svg"
   xmlns:sodipodi="http://sodipodi.sourceforge.net/DTD/sodipodi-0.dtd"
   xmlns:inkscape="http://www.inkscape.org/namespaces/inkscape"
   width="210mm"
   height="297mm"
   viewBox="0 0 744.09448819 1052.3622047"
   id="svg2"
   version="1.1"
   inkscape:version="0.91 r13725"
   sodipodi:docname="emacs-gifs-logo-workbook.svg">
  <defs
     id="defs4" />
  <sodipodi:namedview
     id="base"
     pagecolor="#ffffff"
     bordercolor="#666666"
     borderopacity="1.0"
     inkscape:pageopacity="0.0"
     inkscape:pageshadow="2"
     inkscape:zoom="0.58854581"
     inkscape:cx="526.7313"
     inkscape:cy="157.90415"
     inkscape:document-units="px"
     inkscape:current-layer="g4322"
     showgrid="false"
     inkscape:window-width="1680"
     inkscape:window-height="1001"
     inkscape:window-x="0"
     inkscape:window-y="1"
     inkscape:window-maximized="1" />
  <metadata
     id="metadata7">
    <rdf:RDF>
      <cc:Work
         rdf:about="">
        <dc:format>image/svg+xml</dc:format>
        <dc:type
           rdf:resource="http://purl.org/dc/dcmitype/StillImage" />
        <dc:title />
      </cc:Work>
    </rdf:RDF>
  </metadata>
  <g
     inkscape:label="Layer 1"
     inkscape:groupmode="layer"
     id="layer1">
    <text
       transform="scale(0.99660606,1.0034055)"
       sodipodi:linespacing="125%"
       id="text4206"
       y="285.66599"
       x="148.47574"
       style="font-style:normal;font-variant:normal;font-weight:bold;font-stretch:normal;font-size:72.27754974px;line-height:125%;font-family:sans-serif;-inkscape-font-specification:'sans-serif, Bold';text-align:start;letter-spacing:0px;word-spacing:0px;writing-mode:lr-tb;text-anchor:start;fill:#2c89c7;fill-opacity:1;stroke:none;stroke-width:1px;stroke-linecap:butt;stroke-linejoin:miter;stroke-opacity:1"
       xml:space="preserve"><tspan
         style="font-style:normal;font-variant:normal;font-weight:normal;font-stretch:normal;font-size:90.34692383px;font-family:'Mizo Tiffany Heavy';-inkscape-font-specification:'Mizo Tiffany Heavy, ';letter-spacing:-8.03083801px;fill:#2c89c7;fill-opacity:1"
         y="285.66599"
         x="148.47574"
         id="tspan4208"
         sodipodi:role="line">emacs gifs</tspan></text>
    <g
       id="g4300"
       transform="translate(0,-20.785183)">
      <g
         id="g4277">
        <path
           inkscape:connector-curvature="0"
           id="path4154-2"
           d="m 194.84936,446.71495 a 54.999996,54.999997 0 0 1 67.36098,38.89087 54.999996,54.999997 0 0 1 -38.89088,67.36097 54.999996,54.999997 0 0 1 -67.36096,-38.89087 54.999996,54.999997 0 0 1 38.89086,-67.36097 z"
           style="opacity:1;fill:#2c89c7;fill-opacity:1;stroke:none;stroke-width:2;stroke-linejoin:round;stroke-miterlimit:4;stroke-dasharray:none;stroke-opacity:1" />
        <text
           xml:space="preserve"
           style="font-style:normal;font-variant:normal;font-weight:bold;font-stretch:normal;font-size:72.27754974px;line-height:125%;font-family:sans-serif;-inkscape-font-specification:'sans-serif, Bold';text-align:start;letter-spacing:0px;word-spacing:0px;writing-mode:lr-tb;text-anchor:start;fill:#ffffff;fill-opacity:1;stroke:none;stroke-width:1px;stroke-linecap:butt;stroke-linejoin:miter;stroke-opacity:1"
           x="151.56871"
           y="529.68939"
           id="text4187"
           sodipodi:linespacing="125%"
           transform="scale(0.99660606,1.0034055)"><tspan
             sodipodi:role="line"
             id="tspan4189"
             x="151.56871"
             y="529.68939"
             style="font-style:normal;font-variant:normal;font-weight:normal;font-stretch:normal;font-size:90.34692383px;font-family:'Mizo Tiffany Heavy';-inkscape-font-specification:'Mizo Tiffany Heavy, ';letter-spacing:-8.03083801px;fill:#ffffff;fill-opacity:1">eg</tspan></text>
      </g>
      <g
         id="g4282">
        <path
           style="opacity:1;fill:#2c89c7;fill-opacity:1;stroke:none;stroke-width:2;stroke-linejoin:round;stroke-miterlimit:4;stroke-dasharray:none;stroke-opacity:1"
           d="m 354.84936,446.71495 a 54.999996,54.999997 0 0 1 67.36098,38.89087 54.999996,54.999997 0 0 1 -38.89088,67.36097 54.999996,54.999997 0 0 1 -67.36096,-38.89087 54.999996,54.999997 0 0 1 38.89086,-67.36097 z"
           id="path4216"
           inkscape:connector-curvature="0" />
        <path
           style="font-style:normal;font-variant:normal;font-weight:normal;font-stretch:normal;font-size:90.34692383px;line-height:125%;font-family:'Mizo Tiffany Heavy';-inkscape-font-specification:'Mizo Tiffany Heavy, ';text-align:start;letter-spacing:-8.03083801px;word-spacing:0px;writing-mode:lr-tb;text-anchor:start;fill:#ffffff;fill-opacity:1;stroke:none;stroke-width:1px;stroke-linecap:butt;stroke-linejoin:miter;stroke-opacity:1"
           d="m 416.70043,475.6304 c -2.37411,0 -4.69039,0.91453 -6.94726,2.74414 -2.22756,1.80011 -5.26001,5.43128 -9.09961,10.89062 -2.96031,-0.20659 -4.9839,-0.33943 -6.06836,-0.39843 -1.08448,-0.059 -1.90405,-0.0898 -2.46094,-0.0898 -8.88092,0 -15.60732,1.26879 -20.17969,3.80664 -2.88816,1.58442 -4.86195,3.65323 -5.92578,6.20313 -2.98013,-3.7789 -6.00039,-6.38218 -9.06445,-7.79492 -3.13618,-1.4755 -7.12285,-2.21485 -11.95899,-2.21485 -9.49644,0 -17.20438,2.15445 -23.125,6.46289 -5.89131,4.27895 -8.83789,9.87201 -8.83789,16.77735 0,6.2266 2.24213,11.25745 6.72657,15.09375 4.48442,3.8363 10.43418,5.7539 17.8496,5.7539 5.68614,0 10.59581,-0.91451 14.72852,-2.74414 4.16202,-1.82961 7.78182,-4.66175 10.85938,-8.49804 1.37756,-1.71158 2.52108,-3.45401 3.42968,-5.22461 0.93792,-1.8001 1.40625,-3.02461 1.40625,-3.67383 0,-0.35412 -0.0878,-0.64869 -0.26367,-0.88477 -0.14655,-0.23605 -0.32218,-0.3689 -0.52734,-0.39844 -0.58621,0 -1.20089,0.48712 -1.84571,1.46094 -0.43964,0.67874 -0.80651,1.18126 -1.09961,1.50586 -1.67067,1.88864 -3.73718,3.34801 -6.19921,4.38086 -2.43273,1.03285 -5.02611,1.55078 -7.78125,1.55078 -2.93101,0 -5.58488,-0.79709 -7.95899,-2.39062 -2.37411,-1.59354 -4.24938,-3.85195 -5.62695,-6.77344 l 28.42578,-8.82227 c -0.0423,0.45187 -0.0703,0.91245 -0.0703,1.38672 0,3.68874 1.45183,6.58058 4.35351,8.67578 2.90169,2.09521 7.34108,3.46602 13.32032,4.11524 -7.03441,0.50167 -11.92847,1.56445 -14.6836,3.1875 -2.75514,1.59353 -4.13281,4.10223 -4.13281,7.52539 0,3.12805 1.15717,5.43075 3.47265,6.90625 2.3155,1.4755 6.11092,2.31492 11.38672,2.52148 l 15.82813,0.6211 c 3.31203,0.14754 5.72978,0.64811 7.25391,1.5039 1.52411,0.8853 2.2871,2.19837 2.2871,3.93946 0,2.56736 -1.40694,4.51579 -4.2207,5.84375 -2.81376,1.35745 -6.93312,2.03515 -12.35547,2.03515 -4.86546,0 -8.60235,-0.52943 -11.21093,-1.59179 -2.60859,-1.06236 -3.91211,-2.58338 -3.91211,-4.56055 0,-1.12138 0.32198,-2.00704 0.96679,-2.65625 0.64483,-0.64923 1.71418,-1.14979 3.20899,-1.50391 -1.08448,-0.35412 -2.10895,-0.61981 -3.07617,-0.79687 -0.93792,-0.14755 -1.86288,-0.2207 -2.77149,-0.2207 -2.57928,-10e-6 -4.52675,0.412 -5.8457,1.23828 -1.28964,0.82628 -1.93555,2.05078 -1.93555,3.67382 0,2.77394 2.16994,4.8995 6.50781,6.375 4.3672,1.4755 10.63892,2.2129 18.81641,2.2129 9.93609,-10e-6 17.6733,-1.5499 23.21289,-4.64844 5.53959,-3.06904 8.31055,-7.34709 8.31055,-12.83594 0,-3.77727 -1.18839,-6.55167 -3.5625,-8.32227 -2.3448,-1.7706 -6.22805,-2.77368 -11.65039,-3.00976 l -18.28907,-0.79688 c -1.4948,-0.059 -2.52123,-0.26502 -3.07812,-0.61914 -0.52758,-0.38362 -0.79102,-1.06327 -0.79102,-2.03711 0,-1.68208 2.38849,-2.55232 7.16602,-2.61132 3.01893,-0.059 5.51084,-0.1476 7.47461,-0.26563 7.00509,-0.50167 12.36944,-1.94758 16.09179,-4.33789 3.75169,-2.41981 5.62696,-5.63704 5.62696,-9.65039 0,-3.65924 -1.40694,-6.7282 -4.2207,-9.20703 -2.78445,-2.47884 -6.71257,-4.11534 -11.78321,-4.91211 0.93792,-1.26893 1.80239,-2.15458 2.59375,-2.65625 0.79138,-0.53118 1.62656,-0.79688 2.50586,-0.79688 0.82068,0 2.08128,0.35426 3.78125,1.0625 1.72929,0.67873 3.21039,1.01758 4.44141,1.01758 1.78791,0 3.29632,-0.60454 4.52734,-1.81445 1.23101,-1.23942 1.84766,-2.7739 1.84766,-4.60352 0,-1.88864 -0.52883,-3.37883 -1.58399,-4.4707 -1.02584,-1.09187 -2.44645,-1.63867 -4.26367,-1.63867 z m -24.75195,15.05078 c 1.99308,0 3.35515,0.64883 4.08789,1.94726 0.76207,1.26894 1.14258,4.55931 1.14258,9.8711 l 0,0.79687 0,0.8418 c 0,5.28228 -0.38051,8.57265 -1.14258,9.87109 -0.73274,1.26893 -2.09481,1.90235 -4.08789,1.90235 -1.96378,0 -3.31217,-0.61996 -4.04492,-1.85938 -0.73275,-1.26892 -1.09961,-4.33788 -1.09961,-9.20703 l 0,-1.54883 0,-1.54882 c 0,-4.86914 0.36686,-7.92465 1.09961,-9.16407 0.73275,-1.26892 2.08114,-1.90234 4.04492,-1.90234 z m -49.19531,0.31055 c 1.7586,0 3.03284,0.67769 3.82421,2.03515 0.82068,1.35746 1.23243,3.57159 1.23243,6.64063 0,2.68541 -0.24978,4.38161 -0.74805,5.08984 -0.49827,0.70825 -1.53835,1.31279 -3.12109,1.81445 l -7.95899,2.52344 c -0.23448,-1.4755 -0.4101,-2.78856 -0.52734,-3.93945 -0.11724,-1.15089 -0.17578,-2.19827 -0.17578,-3.14258 0,-3.33463 0.68883,-6.00504 2.0664,-8.01172 1.37757,-2.00667 3.18065,-3.00976 5.40821,-3.00976 z"
           id="path4223"
           inkscape:connector-curvature="0" />
      </g>
      <g
         id="g4286">
        <path
           style="opacity:1;fill:#2c89c7;fill-opacity:1;stroke:none;stroke-width:2;stroke-linejoin:round;stroke-miterlimit:4;stroke-dasharray:none;stroke-opacity:1"
           d="m 531.18481,444.8804 a 54.999996,54.999997 0 0 0 -16.33594,1.83398 54.999996,54.999997 0 0 0 -40.50391,57.91602 c 1.39494,-3.62657 3.90115,-6.75828 7.52539,-9.39063 5.92062,-4.30844 13.62856,-6.46289 23.125,-6.46289 4.83614,0 8.82281,0.73935 11.95899,2.21485 3.06406,1.41274 6.08432,4.01602 9.06445,7.79492 1.06383,-2.5499 3.03762,-4.61871 5.92578,-6.20313 4.57237,-2.53785 11.29877,-3.80664 20.17969,-3.80664 0.55689,0 1.37646,0.0308 2.46094,0.0898 1.08446,0.059 3.10805,0.19184 6.06836,0.39843 3.8396,-5.45934 6.87205,-9.09051 9.09961,-10.89062 2.25687,-1.82961 4.57315,-2.74414 6.94726,-2.74414 0.66338,0 1.27232,0.0751 1.83008,0.2207 a 54.999996,54.999997 0 0 0 -47.3457,-30.9707 z m 50.72851,39.7539 c -0.29955,0.61991 -0.69924,1.19183 -1.21289,1.70899 -1.23102,1.20991 -2.73943,1.81445 -4.52734,1.81445 -1.23102,0 -2.71212,-0.33885 -4.44141,-1.01758 -1.69997,-0.70824 -2.96057,-1.0625 -3.78125,-1.0625 -0.8793,0 -1.71448,0.2657 -2.50586,0.79688 -0.79136,0.50167 -1.65583,1.38732 -2.59375,2.65625 5.07064,0.79677 8.99876,2.43327 11.78321,4.91211 2.81375,2.47883 4.2207,5.54779 4.2207,9.20703 0,4.01335 -1.87527,7.23058 -5.62696,9.65039 -3.72235,2.39031 -9.0867,3.83622 -16.09179,4.33789 -1.96377,0.11803 -4.45568,0.20663 -7.47461,0.26563 -4.77753,0.059 -7.16602,0.92924 -7.16602,2.61132 0,0.97384 0.26344,1.65349 0.79102,2.03711 0.55689,0.35412 1.58332,0.56014 3.07812,0.61914 l 18.28907,0.79688 c 5.42234,0.23608 9.30559,1.23916 11.65039,3.00976 0.13843,0.10324 0.2583,0.22197 0.38867,0.33204 a 54.999996,54.999997 0 0 0 5.51758,-41.70508 54.999996,54.999997 0 0 0 -0.29688,-0.97071 z m -29.96484,6.04688 c -1.96378,0 -3.31217,0.63342 -4.04492,1.90234 -0.73275,1.23942 -1.09961,4.29493 -1.09961,9.16407 l 0,1.54882 0,1.54883 c 0,4.86915 0.36686,7.93811 1.09961,9.20703 0.73275,1.23942 2.08114,1.85938 4.04492,1.85938 1.99308,0 3.35515,-0.63342 4.08789,-1.90235 0.76207,-1.29844 1.14258,-4.58881 1.14258,-9.87109 l 0,-0.8418 0,-0.79687 c 0,-5.31179 -0.38051,-8.60216 -1.14258,-9.8711 -0.73274,-1.29842 -2.09481,-1.94726 -4.08789,-1.94726 z m -49.19531,0.31055 c -2.22756,0 -4.03064,1.00309 -5.40821,3.00976 -1.37757,2.00668 -2.0664,4.67709 -2.0664,8.01172 0,0.94431 0.0585,1.99169 0.17578,3.14258 0.11724,1.15089 0.29286,2.46395 0.52734,3.93945 l 7.95899,-2.52344 c 1.58274,-0.50166 2.62282,-1.1062 3.12109,-1.81445 0.49827,-0.70823 0.74805,-2.40443 0.74805,-5.08984 0,-3.06904 -0.41175,-5.28317 -1.23243,-6.64063 -0.79137,-1.35746 -2.06561,-2.03515 -3.82421,-2.03515 z m 22.40234,11.36132 -28.42578,8.82227 c 1.37757,2.92149 3.25284,5.1799 5.62695,6.77344 2.37411,1.59353 5.02798,2.39062 7.95899,2.39062 2.75514,0 5.34852,-0.51793 7.78125,-1.55078 2.46203,-1.03285 4.52854,-2.49222 6.19921,-4.38086 0.2931,-0.3246 0.65997,-0.82712 1.09961,-1.50586 0.64482,-0.97382 1.2595,-1.46094 1.84571,-1.46094 0.20516,0.0295 0.38079,0.16239 0.52734,0.39844 0.17587,0.23608 0.26367,0.53065 0.26367,0.88477 0,0.64922 -0.46833,1.87373 -1.40625,3.67383 -0.9086,1.7706 -2.05212,3.51303 -3.42968,5.22461 -3.07756,3.83629 -6.69736,6.66843 -10.85938,8.49804 -4.13271,1.82963 -9.04238,2.74414 -14.72852,2.74414 -5.93063,0 -10.92073,-1.2299 -14.97656,-3.68359 a 54.999996,54.999997 0 0 0 60.6875,23.78516 54.999996,54.999997 0 0 0 0.85352,-0.26172 c -6.16107,-0.21609 -11.05795,-0.9204 -14.64649,-2.13282 -4.33787,-1.4755 -6.50781,-3.60106 -6.50781,-6.375 0,-1.62304 0.64591,-2.84754 1.93555,-3.67382 1.31895,-0.82628 3.26642,-1.2383 5.8457,-1.23828 0.90861,0 1.83356,0.0732 2.77149,0.2207 0.96721,0.17706 1.99169,0.44275 3.07617,0.79687 -1.49481,0.35412 -2.56416,0.85468 -3.20899,1.50391 -0.64481,0.64921 -0.96679,1.53487 -0.96679,2.65625 0,1.97717 1.30352,3.49819 3.91211,4.56055 2.60858,1.06236 6.34547,1.59179 11.21093,1.59179 0.91541,0 1.77997,-0.0258 2.6211,-0.0644 a 54.999996,54.999997 0 0 0 13.92187,-8.41211 c -0.15886,-1.44642 -0.90972,-2.56101 -2.2539,-3.3418 -1.52414,-0.85579 -3.94188,-1.35636 -7.25391,-1.5039 l -15.82813,-0.6211 c -5.2758,-0.20656 -9.07122,-1.04598 -11.38672,-2.52148 -2.31548,-1.4755 -3.47265,-3.7782 -3.47265,-6.90625 0,-3.42316 1.37767,-5.93186 4.13281,-7.52539 2.75513,-1.62305 7.64919,-2.68583 14.6836,-3.1875 -5.97924,-0.64922 -10.41863,-2.02003 -13.32032,-4.11524 -2.90168,-2.0952 -4.35351,-4.98704 -4.35351,-8.67578 0,-0.47427 0.028,-0.93485 0.0703,-1.38672 z"
           id="path4230"
           inkscape:connector-curvature="0" />
      </g>
    </g>
    <g
       id="g4326"
       transform="translate(0,-4.5360541e-6)">
      <g
         id="g4318">
        <rect
           y="650.96808"
           x="187.29793"
           height="138.42485"
           width="138.42485"
           id="rect4241"
           style="opacity:1;fill:#000000;fill-opacity:1;stroke:#000000;stroke-width:1.57515705;stroke-linejoin:round;stroke-miterlimit:4;stroke-dasharray:none;stroke-opacity:1" />
        <path
           id="path4235"
           d="m 258.59202,665.2283 a 54.999996,54.999997 0 0 0 -16.33594,1.83398 54.999996,54.999997 0 0 0 -40.50391,57.91602 c 1.39494,-3.62657 3.90115,-6.75828 7.52539,-9.39063 5.92062,-4.30844 13.62856,-6.46289 23.125,-6.46289 4.83614,0 8.82281,0.73935 11.95899,2.21485 3.06406,1.41274 6.08432,4.01602 9.06445,7.79492 1.06383,-2.5499 3.03762,-4.61871 5.92578,-6.20313 4.57237,-2.53785 11.29877,-3.80664 20.17969,-3.80664 0.55689,0 1.37646,0.0308 2.46094,0.0898 1.08446,0.059 3.10805,0.19184 6.06836,0.39843 3.8396,-5.45934 6.87205,-9.09051 9.09961,-10.89062 2.25687,-1.82961 4.57315,-2.74414 6.94726,-2.74414 0.66338,0 1.27232,0.0751 1.83008,0.2207 a 54.999996,54.999997 0 0 0 -47.3457,-30.9707 z m 50.72851,39.7539 c -0.29955,0.61991 -0.69924,1.19183 -1.21289,1.70899 -1.23102,1.20991 -2.73943,1.81445 -4.52734,1.81445 -1.23102,0 -2.71212,-0.33885 -4.44141,-1.01758 -1.69997,-0.70824 -2.96057,-1.0625 -3.78125,-1.0625 -0.8793,0 -1.71448,0.2657 -2.50586,0.79688 -0.79136,0.50167 -1.65583,1.38732 -2.59375,2.65625 5.07064,0.79677 8.99876,2.43327 11.78321,4.91211 2.81375,2.47883 4.2207,5.54779 4.2207,9.20703 0,4.01335 -1.87527,7.23058 -5.62696,9.65039 -3.72235,2.39031 -9.0867,3.83622 -16.09179,4.33789 -1.96377,0.11803 -4.45568,0.20663 -7.47461,0.26563 -4.77753,0.059 -7.16602,0.92924 -7.16602,2.61132 0,0.97384 0.26344,1.65349 0.79102,2.03711 0.55689,0.35412 1.58332,0.56014 3.07812,0.61914 l 18.28907,0.79688 c 5.42234,0.23608 9.30559,1.23916 11.65039,3.00976 0.13843,0.10324 0.2583,0.22197 0.38867,0.33204 a 54.999996,54.999997 0 0 0 5.51758,-41.70508 54.999996,54.999997 0 0 0 -0.29688,-0.97071 z m -29.96484,6.04688 c -1.96378,0 -3.31217,0.63342 -4.04492,1.90234 -0.73275,1.23942 -1.09961,4.29493 -1.09961,9.16407 l 0,1.54882 0,1.54883 c 0,4.86915 0.36686,7.93811 1.09961,9.20703 0.73275,1.23942 2.08114,1.85938 4.04492,1.85938 1.99308,0 3.35515,-0.63342 4.08789,-1.90235 0.76207,-1.29844 1.14258,-4.58881 1.14258,-9.87109 l 0,-0.8418 0,-0.79687 c 0,-5.31179 -0.38051,-8.60216 -1.14258,-9.8711 -0.73274,-1.29842 -2.09481,-1.94726 -4.08789,-1.94726 z m -49.19531,0.31055 c -2.22756,0 -4.03064,1.00309 -5.40821,3.00976 -1.37757,2.00668 -2.0664,4.67709 -2.0664,8.01172 0,0.94431 0.0585,1.99169 0.17578,3.14258 0.11724,1.15089 0.29286,2.46395 0.52734,3.93945 l 7.95899,-2.52344 c 1.58274,-0.50166 2.62282,-1.1062 3.12109,-1.81445 0.49827,-0.70823 0.74805,-2.40443 0.74805,-5.08984 0,-3.06904 -0.41175,-5.28317 -1.23243,-6.64063 -0.79137,-1.35746 -2.06561,-2.03515 -3.82421,-2.03515 z m 22.40234,11.36132 -28.42578,8.82227 c 1.37757,2.92149 3.25284,5.1799 5.62695,6.77344 2.37411,1.59353 5.02798,2.39062 7.95899,2.39062 2.75514,0 5.34852,-0.51793 7.78125,-1.55078 2.46203,-1.03285 4.52854,-2.49222 6.19921,-4.38086 0.2931,-0.3246 0.65997,-0.82712 1.09961,-1.50586 0.64482,-0.97382 1.2595,-1.46094 1.84571,-1.46094 0.20516,0.0295 0.38079,0.16239 0.52734,0.39844 0.17587,0.23608 0.26367,0.53065 0.26367,0.88477 0,0.64922 -0.46833,1.87373 -1.40625,3.67383 -0.9086,1.7706 -2.05212,3.51303 -3.42968,5.22461 -3.07756,3.83629 -6.69736,6.66843 -10.85938,8.49804 -4.13271,1.82963 -9.04238,2.74414 -14.72852,2.74414 -5.93063,0 -10.92073,-1.2299 -14.97656,-3.68359 a 54.999996,54.999997 0 0 0 60.6875,23.78516 54.999996,54.999997 0 0 0 0.85352,-0.26172 c -6.16107,-0.21609 -11.05795,-0.9204 -14.64649,-2.13282 -4.33787,-1.4755 -6.50781,-3.60106 -6.50781,-6.375 0,-1.62304 0.64591,-2.84754 1.93555,-3.67382 1.31895,-0.82628 3.26642,-1.2383 5.8457,-1.23828 0.90861,0 1.83356,0.0732 2.77149,0.2207 0.96721,0.17706 1.99169,0.44275 3.07617,0.79687 -1.49481,0.35412 -2.56416,0.85468 -3.20899,1.50391 -0.64481,0.64921 -0.96679,1.53487 -0.96679,2.65625 0,1.97717 1.30352,3.49819 3.91211,4.56055 2.60858,1.06236 6.34547,1.59179 11.21093,1.59179 0.91541,0 1.77997,-0.0258 2.6211,-0.0644 a 54.999996,54.999997 0 0 0 13.92187,-8.41211 c -0.15886,-1.44642 -0.90972,-2.56101 -2.2539,-3.3418 -1.52414,-0.85579 -3.94188,-1.35636 -7.25391,-1.5039 l -15.82813,-0.6211 c -5.2758,-0.20656 -9.07122,-1.04598 -11.38672,-2.52148 -2.31548,-1.4755 -3.47265,-3.7782 -3.47265,-6.90625 0,-3.42316 1.37767,-5.93186 4.13281,-7.52539 2.75513,-1.62305 7.64919,-2.68583 14.6836,-3.1875 -5.97924,-0.64922 -10.41863,-2.02003 -13.32032,-4.11524 -2.90168,-2.0952 -4.35351,-4.98704 -4.35351,-8.67578 0,-0.47427 0.028,-0.93485 0.0703,-1.38672 z"
           style="opacity:1;fill:#ffffff;fill-opacity:1;stroke:none;stroke-width:2;stroke-linejoin:round;stroke-miterlimit:4;stroke-dasharray:none;stroke-opacity:1"
           inkscape:connector-curvature="0" />
      </g>
      <g
         id="g4322">
        <rect
           style="opacity:1;fill:#ffffff;fill-opacity:1;stroke:#ffffff;stroke-width:1.57515705;stroke-linejoin:round;stroke-miterlimit:4;stroke-dasharray:none;stroke-opacity:1"
           id="rect4243"
           width="138.42485"
           height="138.42485"
           x="418.3717"
           y="650.96808" />
        <path
           inkscape:connector-curvature="0"
           style="opacity:1;fill:#000000;fill-opacity:1;stroke:none;stroke-width:2;stroke-linejoin:round;stroke-miterlimit:4;stroke-dasharray:none;stroke-opacity:1"
           d="m 489.6658,665.2283 a 54.999996,54.999997 0 0 0 -16.33594,1.83398 54.999996,54.999997 0 0 0 -40.50391,57.91602 c 1.39494,-3.62657 3.90115,-6.75828 7.52539,-9.39063 5.92062,-4.30844 13.62856,-6.46289 23.125,-6.46289 4.83614,0 8.82281,0.73935 11.95899,2.21485 3.06406,1.41274 6.08432,4.01602 9.06445,7.79492 1.06383,-2.5499 3.03762,-4.61871 5.92578,-6.20313 4.57237,-2.53785 11.29877,-3.80664 20.17969,-3.80664 0.55689,0 1.37646,0.0308 2.46094,0.0898 1.08446,0.059 3.10805,0.19184 6.06836,0.39843 3.8396,-5.45934 6.87205,-9.09051 9.09961,-10.89062 2.25687,-1.82961 4.57315,-2.74414 6.94726,-2.74414 0.66338,0 1.27232,0.0751 1.83008,0.2207 a 54.999996,54.999997 0 0 0 -47.3457,-30.9707 z m 50.72851,39.7539 c -0.29955,0.61991 -0.69924,1.19183 -1.21289,1.70899 -1.23102,1.20991 -2.73943,1.81445 -4.52734,1.81445 -1.23102,0 -2.71212,-0.33885 -4.44141,-1.01758 -1.69997,-0.70824 -2.96057,-1.0625 -3.78125,-1.0625 -0.8793,0 -1.71448,0.2657 -2.50586,0.79688 -0.79136,0.50167 -1.65583,1.38732 -2.59375,2.65625 5.07064,0.79677 8.99876,2.43327 11.78321,4.91211 2.81375,2.47883 4.2207,5.54779 4.2207,9.20703 0,4.01335 -1.87527,7.23058 -5.62696,9.65039 -3.72235,2.39031 -9.0867,3.83622 -16.09179,4.33789 -1.96377,0.11803 -4.45568,0.20663 -7.47461,0.26563 -4.77753,0.059 -7.16602,0.92924 -7.16602,2.61132 0,0.97384 0.26344,1.65349 0.79102,2.03711 0.55689,0.35412 1.58332,0.56014 3.07812,0.61914 l 18.28907,0.79688 c 5.42234,0.23608 9.30559,1.23916 11.65039,3.00976 0.13843,0.10324 0.2583,0.22197 0.38867,0.33204 a 54.999996,54.999997 0 0 0 5.51758,-41.70508 54.999996,54.999997 0 0 0 -0.29688,-0.97071 z m -29.96484,6.04688 c -1.96378,0 -3.31217,0.63342 -4.04492,1.90234 -0.73275,1.23942 -1.09961,4.29493 -1.09961,9.16407 l 0,1.54882 0,1.54883 c 0,4.86915 0.36686,7.93811 1.09961,9.20703 0.73275,1.23942 2.08114,1.85938 4.04492,1.85938 1.99308,0 3.35515,-0.63342 4.08789,-1.90235 0.76207,-1.29844 1.14258,-4.58881 1.14258,-9.87109 l 0,-0.8418 0,-0.79687 c 0,-5.31179 -0.38051,-8.60216 -1.14258,-9.8711 -0.73274,-1.29842 -2.09481,-1.94726 -4.08789,-1.94726 z m -49.19531,0.31055 c -2.22756,0 -4.03064,1.00309 -5.40821,3.00976 -1.37757,2.00668 -2.0664,4.67709 -2.0664,8.01172 0,0.94431 0.0585,1.99169 0.17578,3.14258 0.11724,1.15089 0.29286,2.46395 0.52734,3.93945 l 7.95899,-2.52344 c 1.58274,-0.50166 2.62282,-1.1062 3.12109,-1.81445 0.49827,-0.70823 0.74805,-2.40443 0.74805,-5.08984 0,-3.06904 -0.41175,-5.28317 -1.23243,-6.64063 -0.79137,-1.35746 -2.06561,-2.03515 -3.82421,-2.03515 z m 22.40234,11.36132 -28.42578,8.82227 c 1.37757,2.92149 3.25284,5.1799 5.62695,6.77344 2.37411,1.59353 5.02798,2.39062 7.95899,2.39062 2.75514,0 5.34852,-0.51793 7.78125,-1.55078 2.46203,-1.03285 4.52854,-2.49222 6.19921,-4.38086 0.2931,-0.3246 0.65997,-0.82712 1.09961,-1.50586 0.64482,-0.97382 1.2595,-1.46094 1.84571,-1.46094 0.20516,0.0295 0.38079,0.16239 0.52734,0.39844 0.17587,0.23608 0.26367,0.53065 0.26367,0.88477 0,0.64922 -0.46833,1.87373 -1.40625,3.67383 -0.9086,1.7706 -2.05212,3.51303 -3.42968,5.22461 -3.07756,3.83629 -6.69736,6.66843 -10.85938,8.49804 -4.13271,1.82963 -9.04238,2.74414 -14.72852,2.74414 -5.93063,0 -10.92073,-1.2299 -14.97656,-3.68359 a 54.999996,54.999997 0 0 0 60.6875,23.78516 54.999996,54.999997 0 0 0 0.85352,-0.26172 c -6.16107,-0.21609 -11.05795,-0.9204 -14.64649,-2.13282 -4.33787,-1.4755 -6.50781,-3.60106 -6.50781,-6.375 0,-1.62304 0.64591,-2.84754 1.93555,-3.67382 1.31895,-0.82628 3.26642,-1.2383 5.8457,-1.23828 0.90861,0 1.83356,0.0732 2.77149,0.2207 0.96721,0.17706 1.99169,0.44275 3.07617,0.79687 -1.49481,0.35412 -2.56416,0.85468 -3.20899,1.50391 -0.64481,0.64921 -0.96679,1.53487 -0.96679,2.65625 0,1.97717 1.30352,3.49819 3.91211,4.56055 2.60858,1.06236 6.34547,1.59179 11.21093,1.59179 0.91541,0 1.77997,-0.0258 2.6211,-0.0644 a 54.999996,54.999997 0 0 0 13.92187,-8.41211 c -0.15886,-1.44642 -0.90972,-2.56101 -2.2539,-3.3418 -1.52414,-0.85579 -3.94188,-1.35636 -7.25391,-1.5039 l -15.82813,-0.6211 c -5.2758,-0.20656 -9.07122,-1.04598 -11.38672,-2.52148 -2.31548,-1.4755 -3.47265,-3.7782 -3.47265,-6.90625 0,-3.42316 1.37767,-5.93186 4.13281,-7.52539 2.75513,-1.62305 7.64919,-2.68583 14.6836,-3.1875 -5.97924,-0.64922 -10.41863,-2.02003 -13.32032,-4.11524 -2.90168,-2.0952 -4.35351,-4.98704 -4.35351,-8.67578 0,-0.47427 0.028,-0.93485 0.0703,-1.38672 z"
           id="path4237" />
        <rect
           style="opacity:1;fill:#000000;fill-opacity:1;stroke:none;stroke-width:2;stroke-linejoin:round;stroke-miterlimit:4;stroke-dasharray:none;stroke-opacity:1"
           id="rect4226"
           width="38.42794"
           height="41.843758"
           x="569.58752"
           y="711.42096" />
        <path
           id="path4231"
           d="m 506.31791,790.54608 a 54.999996,54.999997 0 0 0 -16.33594,1.83398 54.999996,54.999997 0 0 0 -40.50391,57.91602 c 1.39494,-3.62657 3.90115,-6.75828 7.52539,-9.39063 5.92062,-4.30844 13.62856,-6.46289 23.125,-6.46289 4.83614,0 8.82281,0.73935 11.95899,2.21485 3.06406,1.41274 6.08432,4.01602 9.06445,7.79492 1.06383,-2.5499 3.03762,-4.61871 5.92578,-6.20313 4.57237,-2.53785 11.29877,-3.80664 20.17969,-3.80664 0.55689,0 1.37646,0.0308 2.46094,0.0898 1.08446,0.059 3.10805,0.19184 6.06836,0.39843 3.8396,-5.45934 6.87205,-9.09051 9.09961,-10.89062 2.25687,-1.82961 4.57315,-2.74414 6.94726,-2.74414 0.66338,0 1.27232,0.0751 1.83008,0.2207 a 54.999996,54.999997 0 0 0 -47.3457,-30.9707 z m 50.72851,39.7539 c -0.29955,0.61991 -0.69924,1.19183 -1.21289,1.70899 -1.23102,1.20991 -2.73943,1.81445 -4.52734,1.81445 -1.23102,0 -2.71212,-0.33885 -4.44141,-1.01758 -1.69997,-0.70824 -2.96057,-1.0625 -3.78125,-1.0625 -0.8793,0 -1.71448,0.2657 -2.50586,0.79688 -0.79136,0.50167 -1.65583,1.38732 -2.59375,2.65625 5.07064,0.79677 8.99876,2.43327 11.78321,4.91211 2.81375,2.47883 4.2207,5.54779 4.2207,9.20703 0,4.01335 -1.87527,7.23058 -5.62696,9.65039 -3.72235,2.39031 -9.0867,3.83622 -16.09179,4.33789 -1.96377,0.11803 -4.45568,0.20663 -7.47461,0.26563 -4.77753,0.059 -7.16602,0.92924 -7.16602,2.61132 0,0.97384 0.26344,1.65349 0.79102,2.03711 0.55689,0.35412 1.58332,0.56014 3.07812,0.61914 l 18.28907,0.79688 c 5.42234,0.23608 9.30559,1.23916 11.65039,3.00976 0.13843,0.10324 0.2583,0.22197 0.38867,0.33204 a 54.999996,54.999997 0 0 0 5.51758,-41.70508 54.999996,54.999997 0 0 0 -0.29688,-0.97071 z m -29.96484,6.04688 c -1.96378,0 -3.31217,0.63342 -4.04492,1.90234 -0.73275,1.23942 -1.09961,4.29493 -1.09961,9.16407 l 0,1.54882 0,1.54883 c 0,4.86915 0.36686,7.93811 1.09961,9.20703 0.73275,1.23942 2.08114,1.85938 4.04492,1.85938 1.99308,0 3.35515,-0.63342 4.08789,-1.90235 0.76207,-1.29844 1.14258,-4.58881 1.14258,-9.87109 l 0,-0.8418 0,-0.79687 c 0,-5.31179 -0.38051,-8.60216 -1.14258,-9.8711 -0.73274,-1.29842 -2.09481,-1.94726 -4.08789,-1.94726 z m -49.19531,0.31055 c -2.22756,0 -4.03064,1.00309 -5.40821,3.00976 -1.37757,2.00668 -2.0664,4.67709 -2.0664,8.01172 0,0.94431 0.0585,1.99169 0.17578,3.14258 0.11724,1.15089 0.29286,2.46395 0.52734,3.93945 l 7.95899,-2.52344 c 1.58274,-0.50166 2.62282,-1.1062 3.12109,-1.81445 0.49827,-0.70823 0.74805,-2.40443 0.74805,-5.08984 0,-3.06904 -0.41175,-5.28317 -1.23243,-6.64063 -0.79137,-1.35746 -2.06561,-2.03515 -3.82421,-2.03515 z m 22.40234,11.36132 -28.42578,8.82227 c 1.37757,2.92149 3.25284,5.1799 5.62695,6.77344 2.37411,1.59353 5.02798,2.39062 7.95899,2.39062 2.75514,0 5.34852,-0.51793 7.78125,-1.55078 2.46203,-1.03285 4.52854,-2.49222 6.19921,-4.38086 0.2931,-0.3246 0.65997,-0.82712 1.09961,-1.50586 0.64482,-0.97382 1.2595,-1.46094 1.84571,-1.46094 0.20516,0.0295 0.38079,0.16239 0.52734,0.39844 0.17587,0.23608 0.26367,0.53065 0.26367,0.88477 0,0.64922 -0.46833,1.87373 -1.40625,3.67383 -0.9086,1.7706 -2.05212,3.51303 -3.42968,5.22461 -3.07756,3.83629 -6.69736,6.66843 -10.85938,8.49804 -4.13271,1.82963 -9.04238,2.74414 -14.72852,2.74414 -5.93063,0 -10.92073,-1.2299 -14.97656,-3.68359 a 54.999996,54.999997 0 0 0 60.6875,23.78516 54.999996,54.999997 0 0 0 0.85352,-0.26172 c -6.16107,-0.21609 -11.05795,-0.9204 -14.64649,-2.13282 -4.33787,-1.4755 -6.50781,-3.60106 -6.50781,-6.375 0,-1.62304 0.64591,-2.84754 1.93555,-3.67382 1.31895,-0.82628 3.26642,-1.2383 5.8457,-1.23828 0.90861,0 1.83356,0.0732 2.77149,0.2207 0.96721,0.17706 1.99169,0.44275 3.07617,0.79687 -1.49481,0.35412 -2.56416,0.85468 -3.20899,1.50391 -0.64481,0.64921 -0.96679,1.53487 -0.96679,2.65625 0,1.97717 1.30352,3.49819 3.91211,4.56055 2.60858,1.06236 6.34547,1.59179 11.21093,1.59179 0.91541,0 1.77997,-0.0258 2.6211,-0.0644 a 54.999996,54.999997 0 0 0 13.92187,-8.41211 c -0.15886,-1.44642 -0.90972,-2.56101 -2.2539,-3.3418 -1.52414,-0.85579 -3.94188,-1.35636 -7.25391,-1.5039 l -15.82813,-0.6211 c -5.2758,-0.20656 -9.07122,-1.04598 -11.38672,-2.52148 -2.31548,-1.4755 -3.47265,-3.7782 -3.47265,-6.90625 0,-3.42316 1.37767,-5.93186 4.13281,-7.52539 2.75513,-1.62305 7.64919,-2.68583 14.6836,-3.1875 -5.97924,-0.64922 -10.41863,-2.02003 -13.32032,-4.11524 -2.90168,-2.0952 -4.35351,-4.98704 -4.35351,-8.67578 0,-0.47427 0.028,-0.93485 0.0703,-1.38672 z"
           style="opacity:1;fill:#000000;fill-opacity:1;stroke:none;stroke-width:2;stroke-linejoin:round;stroke-miterlimit:4;stroke-dasharray:none;stroke-opacity:1"
           inkscape:connector-curvature="0" />
      </g>
    </g>
  </g>
</svg>
